<svg width="800" height="600" xmlns="http://www.w3.org/2000/svg">

 <g>
  <title>Layer 1</title>
  <g stroke="null">
   <g stroke="null">
    <path stroke="null" d="m648.29999,297.78906c0,-37.66711 -47.1709,-73.364 -119.49176,-95.50067c16.68939,-73.71172 9.27191,-132.35654 -23.41159,-151.13217c-7.53342,-4.40415 -16.3418,-6.49033 -25.96136,-6.49033l0,25.84545c5.33139,0 9.61957,1.0431 13.21255,3.01337c15.76215,9.04012 22.60022,43.46209 17.26883,87.73547c-1.27487,10.8945 -3.36102,22.36848 -5.91083,34.07428c-22.71616,-5.56316 -47.51852,-9.85141 -73.59576,-12.633c-15.64636,-21.44128 -31.87222,-40.91231 -48.21393,-57.94944c37.78305,-35.11736 73.24811,-54.35658 97.35507,-54.35658l0,-25.84546c0,0 0,0 0,0c-31.87219,0 -73.59579,22.71619 -115.78302,62.12182c-42.18716,-39.17384 -83.91077,-61.65822 -115.78296,-61.65822l0,25.84545c23.991,0 59.57202,19.12332 97.35507,54.0089c-16.22586,17.03713 -32.45169,36.39225 -47.8663,57.83353c-26.19308,2.78159 -50.99551,7.06984 -73.71164,12.74889c-2.6657,-11.58989 -4.63596,-22.83208 -6.02679,-33.61069c-5.44722,-44.27337 1.27493,-78.69534 16.92128,-87.85136c3.47697,-2.08618 7.99702,-3.01337 13.32838,-3.01337l0,-25.84545c0,0 0,0 0,0c-9.73555,0 -18.54382,2.08617 -26.19316,6.49033c-32.5676,18.77564 -39.86923,77.30457 -23.06387,150.78447c-72.08913,22.25258 -119.02818,57.83357 -119.02818,95.38478c0,37.66714 47.17085,73.36398 119.49173,95.50073c-16.68941,73.71167 -9.27191,132.35651 23.41164,151.13214c7.53339,4.40411 16.34171,6.49036 26.07721,6.49036c31.87224,0 73.59584,-22.71619 115.78304,-62.12186c42.18713,39.17386 83.91074,61.65823 115.78299,61.65823c9.7355,0 18.54376,-2.08618 26.19315,-6.49036c32.56757,-18.77557 39.8692,-77.30453 23.06384,-150.78445c71.8573,-22.13666 118.79639,-57.83356 118.79639,-95.3848zm-150.90039,-77.30455c-4.28827,14.95096 -9.6196,30.36551 -15.64636,45.78004c-4.75183,-9.27191 -9.7355,-18.54382 -15.18277,-27.81572c-5.33127,-9.27191 -11.01035,-18.31203 -16.68939,-27.12035c16.45767,2.43388 32.33585,5.44727 47.51852,9.15602zm-53.08167,123.4323c-9.04013,15.64636 -18.31204,30.48141 -27.93164,44.27341c-17.26892,1.50665 -34.76965,2.31796 -52.38626,2.31796c-17.50073,0 -35.00153,-0.81131 -52.15451,-2.20209c-9.61963,-13.79196 -19.00748,-28.51111 -28.04758,-44.0416c-8.80829,-15.18271 -16.8053,-30.59729 -24.1069,-46.12775c7.1857,-15.53043 15.29861,-31.06088 23.99103,-46.24365c9.0401,-15.64635 18.31201,-30.4814 27.93161,-44.27336c17.26895,-1.5067 34.76965,-2.31798 52.38635,-2.31798c17.5007,0 35.00143,0.81128 52.15451,2.20207c9.61957,13.79196 19.00739,28.51112 28.04749,44.04155c8.80829,15.18277 16.80536,30.59735 24.10699,46.12778c-7.30164,15.53046 -15.29871,31.06094 -23.99109,46.24365zm37.4353,-15.06683c6.25864,15.53043 11.5899,31.06088 15.99405,46.12775c-15.18268,3.70877 -31.17682,6.83804 -47.75031,9.27191c5.67905,-8.92419 11.35809,-18.0802 16.68939,-27.46802c5.33139,-9.27191 10.31503,-18.65973 15.06686,-27.93164zm-117.52142,123.66412c-10.77859,-11.12631 -21.55719,-23.52747 -32.21988,-37.08765c10.43088,0.46359 21.0936,0.81131 31.87219,0.81131c10.89453,0 21.6731,-0.23181 32.21988,-0.81131c-10.43091,13.56018 -21.2095,25.96133 -31.87219,37.08765zm-86.22882,-68.26443c-16.45764,-2.4339 -32.33574,-5.44724 -47.51854,-9.15601c4.28827,-14.95096 9.61963,-30.36554 15.64638,-45.78006c4.75186,9.27191 9.7355,18.54382 15.18277,27.81573c5.44724,9.27191 11.01041,18.31201 16.68939,27.12033zm85.64932,-241.18561c10.77863,11.1263 21.55722,23.52747 32.21988,37.08765c-10.43091,-0.46359 -21.09354,-0.81129 -31.87216,-0.81129c-10.8945,0 -21.67307,0.2318 -32.21991,0.81129c10.43088,-13.56018 21.20947,-25.96135 31.87219,-37.08765zm-85.7652,68.26443c-5.67902,8.92421 -11.35806,18.08022 -16.68939,27.46803c-5.33139,9.2719 -10.31503,18.54381 -15.06685,27.81572c-6.25858,-15.53041 -11.58989,-31.06087 -15.99411,-46.12773c15.1828,-3.59286 31.17683,-6.72214 47.75035,-9.15602zm-104.88847,145.10544c-41.02821,-17.50073 -67.56906,-40.4487 -67.56906,-58.64487c0,-18.19611 26.54085,-41.25998 67.56906,-58.64482c9.96732,-4.28825 20.86179,-8.11292 32.10399,-11.7058c6.60625,22.71622 15.29863,46.35959 26.07726,70.58243c-10.66272,24.10696 -19.23923,47.63446 -25.72957,70.23474c-11.47398,-3.59286 -22.3685,-7.53345 -32.45168,-11.82169zm62.35361,165.61954c-15.76225,-9.04016 -22.60033,-43.46213 -17.26897,-87.7355c1.2749,-10.8945 3.3611,-22.36847 5.91086,-34.07428c22.71616,5.56317 47.51855,9.85141 73.59579,12.63297c15.64636,21.44131 31.87219,40.91235 48.21396,57.94946c-37.78305,35.1174 -73.24814,54.35663 -97.35509,54.35663c-5.21548,-0.11597 -9.61958,-1.159 -13.09656,-3.12927zm274.91216,-88.315c5.44727,44.27338 -1.27484,78.69537 -16.9212,87.85138c-3.47696,2.08618 -7.99707,3.01337 -13.32837,3.01337c-23.99109,0 -59.57208,-19.12335 -97.3551,-54.00891c16.22583,-17.03711 32.45169,-36.39224 47.86624,-57.83356c26.19318,-2.78156 50.99551,-7.06982 73.71167,-12.74887c2.66568,11.70581 4.75183,22.948 6.02676,33.72659zm44.62109,-77.30453c-9.96729,4.28827 -20.86182,8.11292 -32.104,11.70578c-6.60626,-22.71619 -15.29868,-46.35956 -26.07727,-70.58246c10.66272,-24.10693 19.23926,-47.6344 25.72955,-70.2347c11.47406,3.59286 22.36847,7.53343 32.56757,11.82169c41.02826,17.50072 67.56915,40.44872 67.56915,58.64482c-0.11597,18.19617 -26.65686,41.26004 -67.685,58.64487z" fill="#61DAFB"/>
    <polygon stroke="null" points="247.86927795410156,45.01358604431152 247.86927795410156,45.01358604431152 247.86927795410156,45.01358604431152 " fill="#61DAFB"/>
    <circle stroke="null" r="52.9658" cy="297.78907" cx="363.88411" fill="#61DAFB"/>
    <polygon stroke="null" points="479.31939697265625,44.665884017944336 479.31939697265625,44.665884017944336 479.31939697265625,44.665884017944336 " fill="#61DAFB"/>
   </g>
  </g>
  <g stroke="null">
   <g stroke="null" fill-rule="evenodd" fill="none">
    <path stroke="null" fill="#00C58E" d="m565.3252,536.71521l-0.6087,-0.72845c-1.21722,-2.91388 -1.21722,-5.82782 -1.21722,-8.74176l-57.82285,0l86.42984,-183.57608l35.91095,77.94699l11.56458,-10.19867l-35.91095,-77.94708c-0.60864,-1.45694 -4.86926,-9.47015 -12.17328,-9.47015c-3.04321,0 -7.9126,1.45697 -11.56445,9.47015l-87.03851,185.76166c-0.6087,1.45691 -4.26071,10.19867 -0.6087,17.4834c1.21732,3.64246 4.86932,7.28479 12.78192,7.28479l73.03925,0c-7.9126,0 -11.56451,-3.64233 -12.78186,-7.28479z"/>
    <path stroke="null" fill="#108775" d="m730.88098,519.96027l-69.99603,-150.79471c-1.21735,-1.45691 -4.86932,-9.47018 -12.17322,-9.47018c-3.04327,0 -7.30389,1.45697 -11.56451,9.47018l-9.13,17.48343l0,34.96692l20.69452,-42.98013l69.38733,148.60922l-26.17242,0a12.17321,14.56954 0 0 1 -1.21729,8.74176l0,0.72845c-3.65204,7.28479 -11.56464,7.28479 -12.78186,7.28479l41.38892,0c1.21722,0 9.12994,0 12.7818,-7.28479c1.21735,-3.64233 2.43469,-9.47021 -1.21722,-16.75494z"/>
    <path stroke="null" fill-rule="nonzero" fill="#2F495E" d="m692.53528,536.71521l0,-0.72845l0.6087,-1.45697c0.60864,-2.18549 1.21735,-5.0993 0.60864,-7.28479l-2.43457,-8.01318l-54.7796,-115.0994l-7.9126,-17.48343l-0.60864,0l-7.91254,17.48343l-55.38818,115.0994l-1.82599,8.01318a12.78188,15.29801 0 0 0 1.21741,9.47021c1.82593,3.64246 5.47791,7.28479 12.7818,7.28479l102.255,0c1.82599,0 9.73865,0 13.39056,-7.28479zm-64.51807,-115.0993l50.5188,105.62909l-100.42896,0l49.91016,-105.62909z"/>
   </g>
  </g>
 </g>
</svg>